# xmcd CD database file generated by OrangeCD 5.2
#
# Track frame offsets:
#	150
#	11138
#	22661
#	34987
#	46488
#	60350
#	72870
#	83135
#	96884
#	110419
#	122149
#	134684
#	149356
#	161936
#	172313
#	182925
#
# Disc length: 2605 seconds
#
# Revision: 0
# Processed by: cddbd v1.5.1PL0 Copyright (c) Steve Scherf et al.
# Submitted via: OrangeCD 5.2
#
DISCID=e80a2b10
DTITLE=Johnny Paycheck - The Best Of Johnny Paycheck
DYEAR=1900
DGENRE=Country
TTITLE0=Apartment #9
TTITLE1=Heartaches By The Number
TTITLE2=Crazy Arms
TTITLE3=Release Me
TTITLE4=Almost Persuaded
TTITLE5=Heaven's Almost As Big As Texas
TTITLE6=Motel Time Again
TTITLE7=Somebody Loves Me
TTITLE8=Slide Off Of Your Satin Sheets
TTITLE9=For A Minute There
TTITLE10=Keep On Lovin' Me
TTITLE11=Green Green Grass Of Home
TTITLE12=She's All I Got
TTITLE13=A-11
TTITLE14=Jukebox Charlie
TTITLE15=Take This Job And Shove It
EXTD=
EXTT0=
EXTT1=
EXTT2=
EXTT3=
EXTT4=
EXTT5=
EXTT6=
EXTT7=
EXTT8=
EXTT9=
EXTT10=
EXTT11=
EXTT12=
EXTT13=
EXTT14=
EXTT15=
PLAYORDER=
